<svg id="Capa_1" enable-background="new 0 0 497 497" height="512" viewBox="0 0 497 497" width="512" xmlns="http://www.w3.org/2000/svg"><g><ellipse cx="402.898" cy="197.607" fill="#efedee" rx="67.126" ry="67.126" transform="matrix(.707 -.707 .707 .707 -21.723 342.77)"/><g><path d="m423.973 152.149c-29.489-69.678-83.789-122.575-148.155-142.968-17.981-5.697-36.748-8.859-55.979-9.139v-.042c-.001 0-2.803 0-2.804 0v.043c-71.112 1.791-128.301 71.519-128.301 157.282h100.193 28.108l147.548 1.39v34.981c29.248 27.21 74.96-4.759 59.39-41.547z" fill="#ff8e9e"/><path d="m275.818 9.181c-17.981-5.697-36.748-8.859-55.979-9.139v-.042c-.469 0-.934.015-1.401.022-.468-.005-.934-.022-1.403-.022v.043c-71.112 1.791-128.301 71.519-128.301 157.282h100.193c0-22.294 4.834-43.536 11.804-62.751 14.371-39.625 40.976-70.733 75.087-85.393z" fill="#ea5b70"/></g><g><g><path d="m333.496 446.426c-9.081-20.826-23.722-39.026-42.311-52.447-20.386-14.826-46.33-23.966-74.15-23.966-27.461 0-54.723 9.399-74.166 23.982-18.163 13.111-32.978 31.063-42.296 52.433-6.761 15.505-10.524 32.605-10.524 50.572h253.973c-.001-17.968-3.765-35.069-10.526-50.574z" fill="#ff8e9e"/><path d="m142.869 393.994c-18.164 13.112-32.979 31.063-42.297 52.434-6.76 15.505-10.523 32.605-10.523 50.572h42.332 10.488 21.649c.049-43.573 20.601-82.332 52.517-107.186 8.501-6.619 17.797-12.264 27.739-16.737-35.587-7.965-72.577-.254-101.905 20.917z" fill="#ea5b70"/></g><g><path d="m291.638 394.301h-80.072-69.13c-2.963 6.164-8.187 12.346-7.06 23.983 1.445 14.925 13.741 28.121 30.865 28.121h.008c2.647 0 5.168.535 7.465 1.498 6.962 2.919 11.854 9.798 11.854 17.82v31.277h62.93v-31.277c0-10.669 8.649-19.318 19.319-19.318 17.124 0 29.42-13.195 30.866-28.121 1.13-11.644-4.107-17.825-7.045-23.983z" fill="#efedee"/><path d="m211.567 394.301h-69.13c-2.963 6.164-8.187 12.346-7.06 23.983 1.445 14.925 13.741 28.121 30.865 28.121h.008c2.647 0 5.168.535 7.465 1.498 8.108-20.856 21.219-39.208 37.852-53.602z" fill="#d4d4d5"/></g><path d="m209.535 412.947h15v84.053h-15z" fill="#b9bbbc"/></g><g><g fill="#ffcbbe"><circle cx="64.82" cy="231.255" r="37.844"/><circle cx="369.25" cy="231.255" r="37.844"/></g><g><path d="m90.241 147.023c-16.057 24.122-25.421 53.082-25.421 84.233 0 69.25 46.25 127.692 109.543 146.142 13.54 3.947 27.857 6.073 42.671 6.073 8.61 0 17.052-.718 25.27-2.095 5.923-.991 11.731-2.325 17.402-3.978 63.294-18.45 109.545-76.892 109.545-146.142 0-31.151-9.364-60.11-25.421-84.233z" fill="#ffddcf"/><path d="m115.278 231.255c0-31.151 9.368-60.11 25.431-84.233h-50.468c-16.057 24.122-25.421 53.082-25.421 84.233 0 84.065 68.15 152.214 152.214 152.214 8.596 0 17.063-.725 25.27-2.095-72.055-12.021-127.026-74.65-127.026-150.119z" fill="#ffcbbe"/></g><g fill="#ff8e9e"><ellipse cx="137.383" cy="281.445" rx="26.998" ry="21.5"/><ellipse cx="296.687" cy="281.445" rx="26.998" ry="21.5"/></g></g><g fill="#313d40"><path d="m147.008 235.722c-5.92-.038-11.451 2.261-15.635 6.419s-6.499 9.696-6.517 15.595c-.013 4.142 3.334 7.51 7.477 7.523h.024c4.131 0 7.486-3.342 7.5-7.477.012-3.898 3.187-7.061 7.083-7.061h.023c1.892.006 3.668.748 5.001 2.09 1.334 1.342 2.065 3.123 2.059 5.015-.013 4.142 3.334 7.51 7.477 7.523h.024c4.131 0 7.486-3.342 7.5-7.477.019-5.898-2.261-11.452-6.419-15.636-4.16-4.182-9.699-6.496-15.597-6.514z"/><path d="m302.962 242.647c-4.158-4.184-9.696-6.499-15.595-6.517-.024 0-.047 0-.071 0-5.872 0-11.397 2.278-15.564 6.419-4.184 4.158-6.499 9.696-6.517 15.595-.013 4.142 3.334 7.51 7.477 7.523h.024c4.131 0 7.486-3.342 7.5-7.477.006-1.892.749-3.668 2.09-5.002 1.342-1.333 3.101-2.073 5.015-2.059 3.906.012 7.073 3.2 7.061 7.105-.013 4.142 3.334 7.51 7.477 7.523h.024c4.131 0 7.486-3.342 7.5-7.477.016-5.896-2.263-11.449-6.421-15.633z"/></g><g><path d="m253.744 263.193c-11.398-11.934-28.699-13.436-36.709-2.219-8.009-11.217-25.311-9.715-36.709 2.219-12.085 12.673-21.511 24.517-17.834 30.88 3.673 6.366 18.64 4.12 35.66-.005 8.458-2.059 15.216-6.996 18.883-13.039 3.667 6.044 10.425 10.98 18.883 13.039 17.02 4.125 31.988 6.371 35.66.005 3.676-6.363-5.75-18.207-17.834-30.88z" fill="#d4d4d5"/><path d="m377.121 245.109c-.055-.224-12.538-51.413-12.538-51.413-4.195-16.511-11.179-32.29-20.754-46.674-12.247 9.421-19.327 23.711-19.327 39.129 0 12.208 4.49 23.89 12.643 32.949.409 4.024.641 8.078.641 12.155 0 26.657-8.508 51.92-24.605 73.058-15.531 20.395-37.475 35.728-62.786 43.004-7.619 2.191-15.541-1.713-18.697-8.986-3.3-7.603-8.637-12.544-14.663-12.544s-11.364 4.941-14.663 12.545c-3.154 7.269-11.07 11.178-18.685 8.989-24.428-7.02-46.728-21.908-62.797-43.008-16.097-21.138-24.605-46.401-24.605-73.058 0-4.101.229-8.148.631-12.144 8.159-9.062 12.653-20.748 12.653-32.961 0-15.418-7.08-29.707-19.327-39.129-9.565 14.369-16.554 30.14-20.753 46.674h-.002l-12.54 51.413c-21.504 88.164 45.264 173.175 136.013 173.175h48.149c36.024 0 68.269-13.396 92.713-35.067 37.134-32.921 56.267-84.941 43.299-138.107z" fill="#efedee"/><path d="m267.208 383.217c-43.241 0-82.263-18.062-109.936-47.051-14.127-8.061-26.521-18.902-36.383-31.852-16.097-21.138-24.605-46.401-24.605-73.058 0-4.101.229-8.148.631-12.144 8.159-9.062 12.653-20.748 12.653-32.961 0-15.418-7.08-29.707-19.327-39.129-9.565 14.369-16.554 30.14-20.753 46.674.006 0 .011-.001.016-.001v.001h-.016-.002l-12.54 51.413c-21.504 88.164 45.264 173.175 136.013 173.175h48.149c36.019 0 68.27-13.401 92.713-35.067z" fill="#d4d4d5"/></g><g><path d="m331.658 111.202c-36.301-11.658-74.239-17.2-114.623-16.81-5.48-.051-10.912.015-16.305.182-34.337 1.064-66.937 6.558-98.311 16.63-34.458 11.062-50.331 50.758-32.932 82.492 18.76-10.286 38.326-18.577 59.033-24.637 27.266-7.978 56.51-12.083 88.515-11.734 56.311-.615 104.087 12.543 147.548 36.371 18.21-36.419-1.579-72.427-32.925-82.494z" fill="#efedee"/><path d="m200.73 94.575c-34.337 1.064-66.937 6.558-98.311 16.63-34.458 11.062-50.331 50.758-32.932 82.492 18.76-10.286 38.344-18.582 59.051-24.643 14.593-32.489 40.249-58.914 72.192-74.479z" fill="#d4d4d5"/></g><g><g><path d="m127.636 213.079c-2.366-7.939 2.152-16.293 10.091-18.659l36.642-10.92c7.941-2.368 16.294 2.152 18.659 10.091 2.366 7.939-2.152 16.293-10.091 18.659l-36.642 10.92c-7.932 2.365-16.292-2.147-18.659-10.091z" fill="#d4d4d5"/></g><g><path d="m306.434 213.079c2.366-7.939-2.152-16.293-10.091-18.659l-36.642-10.92c-7.941-2.368-16.294 2.152-18.659 10.091-2.366 7.939 2.152 16.293 10.091 18.659l36.642 10.92c7.932 2.365 16.292-2.147 18.659-10.091z" fill="#d4d4d5"/></g></g></g></svg>